<svg xmlns="http://www.w3.org/2000/svg" viewBox="0 0 1280 720" role="img" aria-label="Kerno product formula demo poster">
  <rect width="1280" height="720" fill="#141611"/>
  <rect x="72" y="58" width="1136" height="604" rx="30" fill="#f8f4ea"/>
  <rect x="116" y="108" width="1048" height="86" rx="20" fill="#fffefa"/>
  <text x="152" y="162" fill="#3b3b38" font-family="Inter,Arial" font-size="34" font-weight="800">Create a Batch</text>
  <rect x="116" y="226" width="452" height="78" rx="18" fill="#fffefa"/>
  <text x="148" y="274" fill="#0aa79d" font-family="Inter,Arial" font-size="24" font-weight="800">Moisturizing Lotion</text>
  <path d="M526 260l16 16 16-16" fill="none" stroke="#3b3b38" stroke-width="6" stroke-linecap="round"/>
  <rect x="116" y="340" width="1048" height="242" rx="24" fill="#fffefa"/>
  <g font-family="Inter,Arial" font-weight="800">
    <text x="152" y="394" fill="#6f6d67" font-size="20">Ingredient</text><text x="620" y="394" fill="#6f6d67" font-size="20">Quantity</text><text x="846" y="394" fill="#6f6d67" font-size="20">Unit</text>
    <text x="152" y="454" fill="#3b3b38" font-size="24">Rose Water</text><text x="620" y="454" fill="#3b3b38" font-size="24">94</text><text x="846" y="454" fill="#3b3b38" font-size="24">gal</text>
    <text x="152" y="514" fill="#3b3b38" font-size="24">Coconut Oil</text><text x="620" y="514" fill="#3b3b38" font-size="24">48</text><text x="846" y="514" fill="#3b3b38" font-size="24">lb</text>
    <text x="152" y="574" fill="#3b3b38" font-size="24">Shea Butter</text><text x="620" y="574" fill="#3b3b38" font-size="24">34</text><text x="846" y="574" fill="#3b3b38" font-size="24">lb</text>
  </g>
  <rect x="906" y="108" width="258" height="48" rx="24" fill="#0aa79d"/>
  <text x="940" y="140" fill="#fffefa" font-family="Inter,Arial" font-size="18" font-weight="900">Batch setup ready</text>
</svg>
